<svg xmlns="http://www.w3.org/2000/svg" preserveAspectRatio="xMinYMin slice" viewBox="0 0 500 500">
    <g shape-rendering="crispedges">
        <path d="M 285 262 L 361 322 L 330 220 Z" style="fill: rgb(21,152,128);"></path>
        <path d="M 361 322 L 420 229 L 330 220 Z" style="fill: rgb(21,131,116);"></path>
        <path d="M 285 262 L 229 321 L 361 322 Z" style="fill: rgb(21,152,128);"></path>
        <path d="M 323 455 L 419 362 L 361 322 Z" style="fill: rgb(13,63,79);"></path>
        <path d="M 361 322 L 419 362 L 420 229 Z" style="fill: rgb(38,102,101);"></path>
        <path d="M 420 229 L 371 115 L 330 220 Z" style="fill: rgb(98,133,106);"></path>
        <path d="M 330 220 L 220 155 L 285 262 Z" style="fill: rgb(93,195,142);"></path>
        <path d="M 285 262 L 151 264 L 229 321 Z" style="fill: rgb(81,192,143);"></path>
        <path d="M 371 115 L 220 155 L 330 220 Z" style="fill: rgb(133,176,122);"></path>
        <path d="M 500 259.54545454545456 L 500 226.97826086956522 L 438 136 L 420 229 Z" style="fill: rgb(112,141,116);"></path>
        <path d="M 420 229 L 438 136 L 371 115 Z" style="fill: rgb(129,135,102);"></path>
        <path d="M 229 321 L 323 455 L 361 322 Z" style="fill: rgb(19,105,102);"></path>
        <path d="M 220 155 L 151 264 L 285 262 Z" style="fill: rgb(117,214,148);"></path>
        <path d="M 229 321 L 281 463 L 323 455 Z" style="fill: rgb(49,119,111);"></path>
        <path d="M 500 359 L 500 295.5945945945946 L 419 362 Z" style="fill: rgb(74,95,99);"></path>
        <path d="M 419 362 L 500 295.5945945945946 L 500 259.54545454545456 L 420 229 Z" style="fill: rgb(69,118,110);"></path>
        <path d="M 112 448 L 281 463 L 229 321 Z" style="fill: rgb(96,136,111);"></path>
        <path d="M 438 136 L 373 76 L 371 115 Z" style="fill: rgb(145,125,94);"></path>
        <path d="M 371 115 L 281 55 L 220 155 Z" style="fill: rgb(166,178,119);"></path>
        <path d="M 151 264 L 142 323 L 229 321 Z" style="fill: rgb(126,179,126);"></path>
        <path d="M 340.20588235294116 500 L 379.5824175824176 500 L 470 432 L 323 455 Z" style="fill: rgb(57,68,83);"></path>
        <path d="M 323 455 L 470 432 L 419 362 Z" style="fill: rgb(46,65,81);"></path>
        <path d="M 470 432 L 500 393.0526315789474 L 500 359 L 419 362 Z" style="fill: rgb(59,68,83);"></path>
        <path d="M 373 76 L 281 55 L 371 115 Z" style="fill: rgb(150,133,104);"></path>
        <path d="M 220 155 L 134 115 L 151 264 Z" style="fill: rgb(196,213,125);"></path>
        <path d="M 281 463 L 322.93333333333334 500 L 340.20588235294116 500 L 323 455 Z" style="fill: rgb(73,102,102);"></path>
        <path d="M 163 60 L 134 115 L 220 155 Z" style="fill: rgb(227,204,115);"></path>
        <path d="M 151 264 L 71 265 L 142 323 Z" style="fill: rgb(167,189,121);"></path>
        <path d="M 134 115 L 71 265 L 151 264 Z" style="fill: rgb(201,210,124);"></path>
        <path d="M 112 448 L 188.7 500 L 251.96923076923076 500 L 281 463 Z" style="fill: rgb(121,143,116);"></path>
        <path d="M 281 55 L 163 60 L 220 155 Z" style="fill: rgb(198,197,127);"></path>
        <path d="M 112 448 L 229 321 L 142 323 Z" style="fill: rgb(120,138,103);"></path>
        <path d="M 322.93333333333334 500 L 281 463 L 251.96923076923076 500 Z" style="fill: rgb(87,123,114);"></path>
        <path d="M 500 226.97826086956522 L 500 129.16176470588235 L 438 136 Z" style="fill: rgb(149,144,111);"></path>
        <path d="M 438 136 L 472 24 L 373 76 Z" style="fill: rgb(155,114,97);"></path>
        <path d="M 373 76 L 366.258064516129 0 L 324.252427184466 0 L 281 55 Z" style="fill: rgb(150,111,105);"></path>
        <path d="M 500 393.0526315789474 L 470 432 L 500 437.39325842696627 Z" style="fill: rgb(78,72,87);"></path>
        <path d="M 455.7674418604651 500 L 500 500 L 500 437.39325842696627 L 470 432 Z" style="fill: rgb(96,77,91);"></path>
        <path d="M 500 96.78632478632478 L 500 36.81927710843374 L 472 24 L 438 136 Z" style="fill: rgb(174,117,101);"></path>
        <path d="M 281 55 L 228.29166666666666 0 L 201.1818181818182 0 L 163 60 Z" style="fill: rgb(200,171,128);"></path>
        <path d="M 37 368 L 112 448 L 142 323 Z" style="fill: rgb(141,118,93);"></path>
        <path d="M 500 129.16176470588235 L 500 96.78632478632478 L 438 136 Z" style="fill: rgb(179,133,101);"></path>
        <path d="M 379.5824175824176 500 L 455.7674418604651 500 L 470 432 Z" style="fill: rgb(80,73,88);"></path>
        <path d="M 71 265 L 37 368 L 142 323 Z" style="fill: rgb(158,149,111);"></path>
        <path d="M 324.252427184466 0 L 228.29166666666666 0 L 281 55 Z" style="fill: rgb(168,134,123);"></path>
        <path d="M 468.2886597938144 0 L 435.3333333333333 0 L 472 24 Z" style="fill: rgb(152,77,97);"></path>
        <path d="M 472 24 L 435.3333333333333 0 L 366.258064516129 0 L 373 76 Z" style="fill: rgb(145,84,95);"></path>
        <path d="M 134 115 L 33 142 L 71 265 Z" style="fill: rgb(226,190,116);"></path>
        <path d="M 71 265 L 0 301.5339805825243 L 0 341.18840579710144 L 37 368 Z" style="fill: rgb(158,124,112);"></path>
        <path d="M 49 33 L 33 142 L 134 115 Z" style="fill: rgb(252,169,107);"></path>
        <path d="M 49 33 L 134 115 L 163 60 Z" style="fill: rgb(253,177,106);"></path>
        <path d="M 188.7 500 L 112 448 L 135.85321100917432 500 Z" style="fill: rgb(154,143,109);"></path>
        <path d="M 69.77777777777777 500 L 135.85321100917432 500 L 112 448 Z" style="fill: rgb(178,128,101);"></path>
        <path d="M 500 36.81927710843374 L 500 3.3962264150943398 L 472 24 Z" style="fill: rgb(174,93,102);"></path>
        <path d="M 201.1818181818182 0 L 156.33333333333334 0 L 163 60 Z" style="fill: rgb(223,156,119);"></path>
        <path d="M 500 3.3962264150943398 L 500 0 L 468.2886597938144 0 L 472 24 Z" style="fill: rgb(168,80,101);"></path>
        <path d="M 0 395.31775700934577 L 0 459.44444444444446 L 20 463 L 37 368 Z" style="fill: rgb(150,77,97);"></path>
        <path d="M 37 368 L 20 463 L 112 448 Z" style="fill: rgb(154,104,97);"></path>
        <path d="M 0 246.57251908396947 L 0 301.5339805825243 L 71 265 Z" style="fill: rgb(173,143,127);"></path>
        <path d="M 156.33333333333334 0 L 113.16666666666666 0 L 49 33 L 163 60 Z" style="fill: rgb(251,158,108);"></path>
        <path d="M 33 142 L 0 173.58064516129033 L 0 246.57251908396947 L 71 265 Z" style="fill: rgb(203,162,127);"></path>
        <path d="M 0 144.38144329896906 L 0 173.5806451612903 L 33 142 Z" style="fill: rgb(224,152,119);"></path>
        <path d="M 113.16666666666667 0 L 43.13333333333333 0 L 49 33 Z" style="fill: rgb(247,122,110);"></path>
        <path d="M 0 109.48529411764706 L 0 144.38144329896906 L 33 142 Z" style="fill: rgb(250,145,109);"></path>
        <path d="M 49 33 L 0 57.5 L 0 109.48529411764706 L 33 142 Z" style="fill: rgb(248,133,109);"></path>
        <path d="M 8.41891891891892 0 L 0 0 L 0 57.5 L 49 33 Z" style="fill: rgb(241,87,111);"></path>
        <path d="M 0 480.5238095238095 L 0 500 L 18.91176470588235 500 L 20 463 Z" style="fill: rgb(172,80,102);"></path>
        <path d="M 20 463 L 18.91176470588235 500 L 69.77777777777777 500 L 112 448 Z" style="fill: rgb(173,105,101);"></path>
        <path d="M 0 395.31775700934577 L 37 368 L 0 341.18840579710144 Z" style="fill: rgb(136,74,93);"></path>
        <path d="M 0 459.44444444444446 L 0 480.5238095238095 L 20 463 Z" style="fill: rgb(169,80,101);"></path>
        <path d="M 43.13333333333333 0 L 8.41891891891892 0 L 49 33 Z" style="fill: rgb(240,81,111);"></path>
    </g>
</svg>