<svg xmlns="http://www.w3.org/2000/svg"
    xmlns:xlink="http://www.w3.org/1999/xlink" zoomAndPan="magnify" preserveAspectRatio="xMidYMid meet" version="1.0" viewBox="63.08 159.65 247.37 55.1">
    <defs>
        <g></g>
    </defs>
    <g fill="#ffffff" fill-opacity="1">
        <g transform="translate(95.165368, 203.849034)">
            <g>
                <path d="M 7.125 0.234375 C 4.832031 0.234375 3.175781 -0.332031 2.15625 -1.46875 C 1.132812 -2.613281 0.625 -4.453125 0.625 -6.984375 L 0.625 -9.453125 L 5.59375 -9.453125 L 5.59375 -6.296875 C 5.59375 -5.046875 5.992188 -4.421875 6.796875 -4.421875 C 7.253906 -4.421875 7.570312 -4.550781 7.75 -4.8125 C 7.925781 -5.082031 8.015625 -5.53125 8.015625 -6.15625 C 8.015625 -6.976562 7.914062 -7.660156 7.71875 -8.203125 C 7.519531 -8.742188 7.269531 -9.195312 6.96875 -9.5625 C 6.664062 -9.925781 6.117188 -10.488281 5.328125 -11.25 L 3.15625 -13.4375 C 1.46875 -15.082031 0.625 -16.90625 0.625 -18.90625 C 0.625 -21.070312 1.117188 -22.71875 2.109375 -23.84375 C 3.097656 -24.96875 4.546875 -25.53125 6.453125 -25.53125 C 8.722656 -25.53125 10.359375 -24.925781 11.359375 -23.71875 C 12.367188 -22.507812 12.875 -20.625 12.875 -18.0625 L 7.71875 -18.0625 L 7.6875 -19.796875 C 7.6875 -20.128906 7.59375 -20.390625 7.40625 -20.578125 C 7.21875 -20.773438 6.957031 -20.875 6.625 -20.875 C 6.226562 -20.875 5.929688 -20.765625 5.734375 -20.546875 C 5.546875 -20.335938 5.453125 -20.046875 5.453125 -19.671875 C 5.453125 -18.847656 5.921875 -17.992188 6.859375 -17.109375 L 9.8125 -14.28125 C 10.5 -13.613281 11.066406 -12.976562 11.515625 -12.375 C 11.960938 -11.78125 12.320312 -11.078125 12.59375 -10.265625 C 12.875 -9.453125 13.015625 -8.484375 13.015625 -7.359375 C 13.015625 -4.867188 12.554688 -2.976562 11.640625 -1.6875 C 10.734375 -0.40625 9.226562 0.234375 7.125 0.234375 Z M 7.125 0.234375 "></path>
            </g>
        </g>
    </g>
    <g fill="#ffffff" fill-opacity="1">
        <g transform="translate(108.741459, 203.849034)">
            <g>
                <path d="M 3.296875 0 L 3.296875 -20.4375 L 0.296875 -20.4375 L 0.296875 -25.296875 L 11.375 -25.296875 L 11.375 -20.4375 L 8.359375 -20.4375 L 8.359375 0 Z M 3.296875 0 "></path>
            </g>
        </g>
    </g>
    <g fill="#ffffff" fill-opacity="1">
        <g transform="translate(120.403354, 203.849034)">
            <g>
                <path d="M 7.15625 0.234375 C 5.113281 0.234375 3.5625 -0.382812 2.5 -1.625 C 1.4375 -2.875 0.90625 -4.628906 0.90625 -6.890625 L 0.90625 -18.9375 C 0.90625 -21.113281 1.4375 -22.753906 2.5 -23.859375 C 3.5625 -24.972656 5.113281 -25.53125 7.15625 -25.53125 C 9.195312 -25.53125 10.75 -24.972656 11.8125 -23.859375 C 12.875 -22.753906 13.40625 -21.113281 13.40625 -18.9375 L 13.40625 -6.890625 C 13.40625 -4.609375 12.875 -2.847656 11.8125 -1.609375 C 10.75 -0.378906 9.195312 0.234375 7.15625 0.234375 Z M 7.15625 -4.421875 C 7.601562 -4.421875 7.90625 -4.613281 8.0625 -5 C 8.226562 -5.394531 8.3125 -5.945312 8.3125 -6.65625 L 8.3125 -19.03125 C 8.3125 -19.570312 8.234375 -20.015625 8.078125 -20.359375 C 7.929688 -20.703125 7.632812 -20.875 7.1875 -20.875 C 6.34375 -20.875 5.921875 -20.238281 5.921875 -18.96875 L 5.921875 -6.625 C 5.921875 -5.894531 6.007812 -5.34375 6.1875 -4.96875 C 6.363281 -4.601562 6.6875 -4.421875 7.15625 -4.421875 Z M 7.15625 -4.421875 "></path>
            </g>
        </g>
    </g>
    <g fill="#ffffff" fill-opacity="1">
        <g transform="translate(134.715677, 203.849034)">
            <g>
                <path d="M 1.125 -25.296875 L 8.890625 -25.296875 C 10.128906 -25.296875 11.085938 -25.015625 11.765625 -24.453125 C 12.441406 -23.898438 12.894531 -23.117188 13.125 -22.109375 C 13.363281 -21.097656 13.484375 -19.804688 13.484375 -18.234375 C 13.484375 -16.796875 13.296875 -15.675781 12.921875 -14.875 C 12.554688 -14.070312 11.910156 -13.507812 10.984375 -13.1875 C 11.753906 -13.03125 12.3125 -12.648438 12.65625 -12.046875 C 13 -11.441406 13.171875 -10.617188 13.171875 -9.578125 L 13.109375 0 L 8.15625 0 L 8.15625 -9.890625 C 8.15625 -10.597656 8.015625 -11.050781 7.734375 -11.25 C 7.460938 -11.445312 6.96875 -11.546875 6.25 -11.546875 L 6.25 0 L 1.125 0 Z M 7.484375 -15.9375 C 8.191406 -15.9375 8.546875 -16.703125 8.546875 -18.234375 C 8.546875 -18.898438 8.515625 -19.398438 8.453125 -19.734375 C 8.390625 -20.066406 8.28125 -20.296875 8.125 -20.421875 C 7.96875 -20.546875 7.742188 -20.609375 7.453125 -20.609375 L 6.28125 -20.609375 L 6.28125 -15.9375 Z M 7.484375 -15.9375 "></path>
            </g>
        </g>
    </g>
    <g fill="#ffffff" fill-opacity="1">
        <g transform="translate(148.762956, 203.849034)">
            <g>
                <path d="M 1.125 0 L 1.125 -25.296875 L 8.828125 -25.296875 L 10.953125 -9.859375 L 13.078125 -25.296875 L 20.859375 -25.296875 L 20.859375 0 L 16.234375 0 L 16.234375 -18.234375 L 13.3125 0 L 8.78125 0 L 5.6875 -18.234375 L 5.6875 0 Z M 1.125 0 "></path>
            </g>
        </g>
    </g>
    <g fill="#ffffff" fill-opacity="1">
        <g transform="translate(170.732074, 203.849034)">
            <g>
                <path d="M 1.125 0 L 1.125 -25.296875 L 6.1875 -25.296875 L 6.1875 -4.296875 L 11.390625 -4.296875 L 11.390625 0 Z M 1.125 0 "></path>
            </g>
        </g>
    </g>
    <g fill="#ffffff" fill-opacity="1">
        <g transform="translate(182.423415, 203.849034)">
            <g>
                <path d="M 0.890625 0 L 0.890625 -25.296875 L 5.765625 -25.296875 L 5.765625 0 Z M 0.890625 0 "></path>
            </g>
        </g>
    </g>
    <g fill="#ffffff" fill-opacity="1">
        <g transform="translate(189.108389, 203.849034)">
            <g>
                <path d="M 6.328125 0.234375 C 4.503906 0.234375 3.144531 -0.40625 2.25 -1.6875 C 1.351562 -2.976562 0.90625 -4.929688 0.90625 -7.546875 L 0.90625 -18.4375 C 0.90625 -20.769531 1.425781 -22.535156 2.46875 -23.734375 C 3.507812 -24.929688 5.0625 -25.53125 7.125 -25.53125 C 8.789062 -25.53125 10.085938 -25.195312 11.015625 -24.53125 C 11.941406 -23.863281 12.578125 -22.890625 12.921875 -21.609375 C 13.273438 -20.335938 13.453125 -18.703125 13.453125 -16.703125 L 8.515625 -16.703125 L 8.515625 -18.96875 C 8.515625 -19.570312 8.429688 -20.039062 8.265625 -20.375 C 8.097656 -20.707031 7.796875 -20.875 7.359375 -20.875 C 6.398438 -20.875 5.921875 -20.25 5.921875 -19 L 5.921875 -6.75 C 5.921875 -5.976562 6.019531 -5.394531 6.21875 -5 C 6.414062 -4.613281 6.757812 -4.421875 7.25 -4.421875 C 7.738281 -4.421875 8.082031 -4.613281 8.28125 -5 C 8.476562 -5.394531 8.578125 -5.976562 8.578125 -6.75 L 8.578125 -10.375 L 7.21875 -10.375 L 7.21875 -14.71875 L 13.40625 -14.71875 L 13.40625 0 L 11.375 0 L 10.515625 -2.125 C 9.609375 -0.550781 8.210938 0.234375 6.328125 0.234375 Z M 6.328125 0.234375 "></path>
            </g>
        </g>
    </g>
    <g fill="#ffffff" fill-opacity="1">
        <g transform="translate(203.391267, 203.849034)">
            <g>
                <path d="M 1.125 0 L 1.125 -25.296875 L 6.15625 -25.296875 L 6.15625 -16.265625 L 8.546875 -16.265625 L 8.546875 -25.296875 L 13.578125 -25.296875 L 13.578125 0 L 8.546875 0 L 8.546875 -11.484375 L 6.15625 -11.484375 L 6.15625 0 Z M 1.125 0 "></path>
            </g>
        </g>
    </g>
    <g fill="#ffffff" fill-opacity="1">
        <g transform="translate(218.08643, 203.849034)">
            <g>
                <path d="M 3.296875 0 L 3.296875 -20.4375 L 0.296875 -20.4375 L 0.296875 -25.296875 L 11.375 -25.296875 L 11.375 -20.4375 L 8.359375 -20.4375 L 8.359375 0 Z M 3.296875 0 "></path>
            </g>
        </g>
    </g>
    <g fill="#ffffff" fill-opacity="1">
        <g transform="translate(229.748325, 203.849034)">
            <g></g>
        </g>
    </g>
    <g fill="#ffffff" fill-opacity="1">
        <g transform="translate(236.639442, 203.849034)">
            <g>
                <path d="M 7.125 0.234375 C 4.832031 0.234375 3.175781 -0.332031 2.15625 -1.46875 C 1.132812 -2.613281 0.625 -4.453125 0.625 -6.984375 L 0.625 -9.453125 L 5.59375 -9.453125 L 5.59375 -6.296875 C 5.59375 -5.046875 5.992188 -4.421875 6.796875 -4.421875 C 7.253906 -4.421875 7.570312 -4.550781 7.75 -4.8125 C 7.925781 -5.082031 8.015625 -5.53125 8.015625 -6.15625 C 8.015625 -6.976562 7.914062 -7.660156 7.71875 -8.203125 C 7.519531 -8.742188 7.269531 -9.195312 6.96875 -9.5625 C 6.664062 -9.925781 6.117188 -10.488281 5.328125 -11.25 L 3.15625 -13.4375 C 1.46875 -15.082031 0.625 -16.90625 0.625 -18.90625 C 0.625 -21.070312 1.117188 -22.71875 2.109375 -23.84375 C 3.097656 -24.96875 4.546875 -25.53125 6.453125 -25.53125 C 8.722656 -25.53125 10.359375 -24.925781 11.359375 -23.71875 C 12.367188 -22.507812 12.875 -20.625 12.875 -18.0625 L 7.71875 -18.0625 L 7.6875 -19.796875 C 7.6875 -20.128906 7.59375 -20.390625 7.40625 -20.578125 C 7.21875 -20.773438 6.957031 -20.875 6.625 -20.875 C 6.226562 -20.875 5.929688 -20.765625 5.734375 -20.546875 C 5.546875 -20.335938 5.453125 -20.046875 5.453125 -19.671875 C 5.453125 -18.847656 5.921875 -17.992188 6.859375 -17.109375 L 9.8125 -14.28125 C 10.5 -13.613281 11.066406 -12.976562 11.515625 -12.375 C 11.960938 -11.78125 12.320312 -11.078125 12.59375 -10.265625 C 12.875 -9.453125 13.015625 -8.484375 13.015625 -7.359375 C 13.015625 -4.867188 12.554688 -2.976562 11.640625 -1.6875 C 10.734375 -0.40625 9.226562 0.234375 7.125 0.234375 Z M 7.125 0.234375 "></path>
            </g>
        </g>
    </g>
    <g fill="#ffffff" fill-opacity="1">
        <g transform="translate(250.215533, 203.849034)">
            <g>
                <path d="M 3.296875 0 L 3.296875 -20.4375 L 0.296875 -20.4375 L 0.296875 -25.296875 L 11.375 -25.296875 L 11.375 -20.4375 L 8.359375 -20.4375 L 8.359375 0 Z M 3.296875 0 "></path>
            </g>
        </g>
    </g>
    <g fill="#ffffff" fill-opacity="1">
        <g transform="translate(261.877428, 203.849034)">
            <g>
                <path d="M 6.984375 0.234375 C 4.898438 0.234375 3.351562 -0.351562 2.34375 -1.53125 C 1.332031 -2.707031 0.828125 -4.457031 0.828125 -6.78125 L 0.828125 -25.296875 L 5.75 -25.296875 L 5.75 -6.984375 C 5.75 -6.171875 5.828125 -5.539062 5.984375 -5.09375 C 6.140625 -4.644531 6.472656 -4.421875 6.984375 -4.421875 C 7.492188 -4.421875 7.828125 -4.640625 7.984375 -5.078125 C 8.140625 -5.523438 8.21875 -6.160156 8.21875 -6.984375 L 8.21875 -25.296875 L 13.140625 -25.296875 L 13.140625 -6.78125 C 13.140625 -4.457031 12.632812 -2.707031 11.625 -1.53125 C 10.613281 -0.351562 9.066406 0.234375 6.984375 0.234375 Z M 6.984375 0.234375 "></path>
            </g>
        </g>
    </g>
    <g fill="#ffffff" fill-opacity="1">
        <g transform="translate(275.836358, 203.849034)">
            <g>
                <path d="M 1.125 -25.296875 L 8.09375 -25.296875 C 9.90625 -25.296875 11.257812 -24.796875 12.15625 -23.796875 C 13.0625 -22.796875 13.523438 -21.3125 13.546875 -19.34375 L 13.609375 -7.515625 C 13.628906 -5.015625 13.195312 -3.132812 12.3125 -1.875 C 11.425781 -0.625 9.960938 0 7.921875 0 L 1.125 0 Z M 7.09375 -4.484375 C 8.019531 -4.484375 8.484375 -4.929688 8.484375 -5.828125 L 8.484375 -18.875 C 8.484375 -19.445312 8.4375 -19.875 8.34375 -20.15625 C 8.257812 -20.445312 8.097656 -20.640625 7.859375 -20.734375 C 7.628906 -20.828125 7.269531 -20.875 6.78125 -20.875 L 6.21875 -20.875 L 6.21875 -4.484375 Z M 7.09375 -4.484375 "></path>
            </g>
        </g>
    </g>
    <g fill="#ffffff" fill-opacity="1">
        <g transform="translate(290.354824, 203.849034)">
            <g>
                <path d="M 0.890625 0 L 0.890625 -25.296875 L 5.765625 -25.296875 L 5.765625 0 Z M 0.890625 0 "></path>
            </g>
        </g>
    </g>
    <g fill="#ffffff" fill-opacity="1">
        <g transform="translate(297.039798, 203.849034)">
            <g>
                <path d="M 7.15625 0.234375 C 5.113281 0.234375 3.5625 -0.382812 2.5 -1.625 C 1.4375 -2.875 0.90625 -4.628906 0.90625 -6.890625 L 0.90625 -18.9375 C 0.90625 -21.113281 1.4375 -22.753906 2.5 -23.859375 C 3.5625 -24.972656 5.113281 -25.53125 7.15625 -25.53125 C 9.195312 -25.53125 10.75 -24.972656 11.8125 -23.859375 C 12.875 -22.753906 13.40625 -21.113281 13.40625 -18.9375 L 13.40625 -6.890625 C 13.40625 -4.609375 12.875 -2.847656 11.8125 -1.609375 C 10.75 -0.378906 9.195312 0.234375 7.15625 0.234375 Z M 7.15625 -4.421875 C 7.601562 -4.421875 7.90625 -4.613281 8.0625 -5 C 8.226562 -5.394531 8.3125 -5.945312 8.3125 -6.65625 L 8.3125 -19.03125 C 8.3125 -19.570312 8.234375 -20.015625 8.078125 -20.359375 C 7.929688 -20.703125 7.632812 -20.875 7.1875 -20.875 C 6.34375 -20.875 5.921875 -20.238281 5.921875 -18.96875 L 5.921875 -6.625 C 5.921875 -5.894531 6.007812 -5.34375 6.1875 -4.96875 C 6.363281 -4.601562 6.6875 -4.421875 7.15625 -4.421875 Z M 7.15625 -4.421875 "></path>
            </g>
        </g>
    </g>
    <g fill="#ffffff" fill-opacity="1">
        <g transform="translate(75.856124, 202.841925)">
            <g>
                <path d="M 21.59375 -43.1875 L 5.5 0 L 0.59375 0 L 16.6875 -43.1875 Z M 21.59375 -43.1875 "></path>
            </g>
        </g>
    </g>
    <g fill="#ffffff" fill-opacity="1">
        <g transform="translate(62.486037, 214.74955)">
            <g>
                <path d="M 21.59375 -43.1875 L 5.5 0 L 0.59375 0 L 16.6875 -43.1875 Z M 21.59375 -43.1875 "></path>
            </g>
        </g>
    </g>
</svg>